<?xml version="1.0" encoding="utf-8"?>
<!-- Generator: Adobe Illustrator 16.0.0, SVG Export Plug-In . SVG Version: 6.00 Build 0)  -->
<!DOCTYPE svg PUBLIC "-//W3C//DTD SVG 1.1//EN" "http://www.w3.org/Graphics/SVG/1.1/DTD/svg11.dtd">
<svg version="1.1" xmlns="http://www.w3.org/2000/svg" xmlns:xlink="http://www.w3.org/1999/xlink" x="0px" y="0px"
	 width="3823.939px" height="396.85px" viewBox="0 0 3823.939 396.85" enable-background="new 0 0 3823.939 396.85"
	 xml:space="preserve">
<g id="背景">
	<rect x="0.001" fill="#CB1F1D" width="3823.938" height="396.85"/>
</g>
<g id="竖线">
	
		<line opacity="0.1" fill="none" stroke="#F7F8F8" stroke-width="6" stroke-miterlimit="10" x1="0.001" y1="0" x2="0.001" y2="396.85"/>
	
		<line opacity="0.1" fill="none" stroke="#F7F8F8" stroke-width="6" stroke-miterlimit="10" x1="17.009" y1="0" x2="17.009" y2="396.85"/>
	
		<line opacity="0.1" fill="none" stroke="#F7F8F8" stroke-width="6" stroke-miterlimit="10" x1="34.017" y1="0" x2="34.017" y2="396.85"/>
	
		<line opacity="0.1" fill="none" stroke="#F7F8F8" stroke-width="6" stroke-miterlimit="10" x1="51.024" y1="0" x2="51.024" y2="396.85"/>
	
		<line opacity="0.1" fill="none" stroke="#F7F8F8" stroke-width="6" stroke-miterlimit="10" x1="68.032" y1="0" x2="68.032" y2="396.85"/>
	
		<line opacity="0.1" fill="none" stroke="#F7F8F8" stroke-width="6" stroke-miterlimit="10" x1="85.04" y1="0" x2="85.04" y2="396.85"/>
	
		<line opacity="0.1" fill="none" stroke="#F7F8F8" stroke-width="6" stroke-miterlimit="10" x1="102.048" y1="0" x2="102.048" y2="396.85"/>
	
		<line opacity="0.1" fill="none" stroke="#F7F8F8" stroke-width="6" stroke-miterlimit="10" x1="119.056" y1="0" x2="119.056" y2="396.85"/>
	
		<line opacity="0.1" fill="none" stroke="#F7F8F8" stroke-width="6" stroke-miterlimit="10" x1="136.063" y1="0" x2="136.063" y2="396.85"/>
	
		<line opacity="0.1" fill="none" stroke="#F7F8F8" stroke-width="6" stroke-miterlimit="10" x1="153.071" y1="0" x2="153.071" y2="396.85"/>
	
		<line opacity="0.1" fill="none" stroke="#F7F8F8" stroke-width="6" stroke-miterlimit="10" x1="170.079" y1="0" x2="170.079" y2="396.85"/>
	
		<line opacity="0.1" fill="none" stroke="#F7F8F8" stroke-width="6" stroke-miterlimit="10" x1="187.087" y1="0" x2="187.087" y2="396.85"/>
	
		<line opacity="0.1" fill="none" stroke="#F7F8F8" stroke-width="6" stroke-miterlimit="10" x1="204.095" y1="0" x2="204.095" y2="396.85"/>
	
		<line opacity="0.1" fill="none" stroke="#F7F8F8" stroke-width="6" stroke-miterlimit="10" x1="221.103" y1="0" x2="221.103" y2="396.85"/>
	
		<line opacity="0.1" fill="none" stroke="#F7F8F8" stroke-width="6" stroke-miterlimit="10" x1="238.11" y1="0" x2="238.11" y2="396.85"/>
	
		<line opacity="0.1" fill="none" stroke="#F7F8F8" stroke-width="6" stroke-miterlimit="10" x1="255.118" y1="0" x2="255.118" y2="396.85"/>
	
		<line opacity="0.1" fill="none" stroke="#F7F8F8" stroke-width="6" stroke-miterlimit="10" x1="272.126" y1="0" x2="272.126" y2="396.85"/>
	
		<line opacity="0.1" fill="none" stroke="#F7F8F8" stroke-width="6" stroke-miterlimit="10" x1="289.134" y1="0" x2="289.134" y2="396.85"/>
	
		<line opacity="0.1" fill="none" stroke="#F7F8F8" stroke-width="6" stroke-miterlimit="10" x1="306.142" y1="0" x2="306.142" y2="396.85"/>
	
		<line opacity="0.1" fill="none" stroke="#F7F8F8" stroke-width="6" stroke-miterlimit="10" x1="323.149" y1="0" x2="323.149" y2="396.85"/>
	
		<line opacity="0.1" fill="none" stroke="#F7F8F8" stroke-width="6" stroke-miterlimit="10" x1="340.157" y1="0" x2="340.157" y2="396.85"/>
	
		<line opacity="0.1" fill="none" stroke="#F7F8F8" stroke-width="6" stroke-miterlimit="10" x1="357.165" y1="0" x2="357.165" y2="396.85"/>
	
		<line opacity="0.1" fill="none" stroke="#F7F8F8" stroke-width="6" stroke-miterlimit="10" x1="374.173" y1="0" x2="374.173" y2="396.85"/>
	
		<line opacity="0.1" fill="none" stroke="#F7F8F8" stroke-width="6" stroke-miterlimit="10" x1="391.181" y1="0" x2="391.181" y2="396.85"/>
	
		<line opacity="0.1" fill="none" stroke="#F7F8F8" stroke-width="6" stroke-miterlimit="10" x1="408.188" y1="0" x2="408.188" y2="396.85"/>
	
		<line opacity="0.1" fill="none" stroke="#F7F8F8" stroke-width="6" stroke-miterlimit="10" x1="425.196" y1="0" x2="425.196" y2="396.85"/>
	
		<line opacity="0.1" fill="none" stroke="#F7F8F8" stroke-width="6" stroke-miterlimit="10" x1="442.204" y1="0" x2="442.204" y2="396.85"/>
	
		<line opacity="0.1" fill="none" stroke="#F7F8F8" stroke-width="6" stroke-miterlimit="10" x1="459.212" y1="0" x2="459.212" y2="396.85"/>
	
		<line opacity="0.1" fill="none" stroke="#F7F8F8" stroke-width="6" stroke-miterlimit="10" x1="476.22" y1="0" x2="476.22" y2="396.85"/>
	
		<line opacity="0.1" fill="none" stroke="#F7F8F8" stroke-width="6" stroke-miterlimit="10" x1="493.228" y1="0" x2="493.228" y2="396.85"/>
	
		<line opacity="0.1" fill="none" stroke="#F7F8F8" stroke-width="6" stroke-miterlimit="10" x1="510.235" y1="0" x2="510.235" y2="396.85"/>
	
		<line opacity="0.1" fill="none" stroke="#F7F8F8" stroke-width="6" stroke-miterlimit="10" x1="527.243" y1="0" x2="527.243" y2="396.85"/>
	
		<line opacity="0.1" fill="none" stroke="#F7F8F8" stroke-width="6" stroke-miterlimit="10" x1="544.251" y1="0" x2="544.251" y2="396.85"/>
	
		<line opacity="0.1" fill="none" stroke="#F7F8F8" stroke-width="6" stroke-miterlimit="10" x1="561.259" y1="0" x2="561.259" y2="396.85"/>
	
		<line opacity="0.1" fill="none" stroke="#F7F8F8" stroke-width="6" stroke-miterlimit="10" x1="578.267" y1="0" x2="578.267" y2="396.85"/>
	
		<line opacity="0.1" fill="none" stroke="#F7F8F8" stroke-width="6" stroke-miterlimit="10" x1="595.274" y1="0" x2="595.274" y2="396.85"/>
	
		<line opacity="0.1" fill="none" stroke="#F7F8F8" stroke-width="6" stroke-miterlimit="10" x1="612.282" y1="0" x2="612.282" y2="396.85"/>
	
		<line opacity="0.1" fill="none" stroke="#F7F8F8" stroke-width="6" stroke-miterlimit="10" x1="629.29" y1="0" x2="629.29" y2="396.85"/>
	
		<line opacity="0.1" fill="none" stroke="#F7F8F8" stroke-width="6" stroke-miterlimit="10" x1="646.298" y1="0" x2="646.298" y2="396.85"/>
	
		<line opacity="0.1" fill="none" stroke="#F7F8F8" stroke-width="6" stroke-miterlimit="10" x1="663.306" y1="0" x2="663.306" y2="396.85"/>
	
		<line opacity="0.1" fill="none" stroke="#F7F8F8" stroke-width="6" stroke-miterlimit="10" x1="680.313" y1="0" x2="680.313" y2="396.85"/>
	
		<line opacity="0.1" fill="none" stroke="#F7F8F8" stroke-width="6" stroke-miterlimit="10" x1="697.321" y1="0" x2="697.321" y2="396.85"/>
	
		<line opacity="0.1" fill="none" stroke="#F7F8F8" stroke-width="6" stroke-miterlimit="10" x1="714.329" y1="0" x2="714.329" y2="396.85"/>
	
		<line opacity="0.1" fill="none" stroke="#F7F8F8" stroke-width="6" stroke-miterlimit="10" x1="731.337" y1="0" x2="731.337" y2="396.85"/>
	
		<line opacity="0.1" fill="none" stroke="#F7F8F8" stroke-width="6" stroke-miterlimit="10" x1="748.345" y1="0" x2="748.345" y2="396.85"/>
	
		<line opacity="0.1" fill="none" stroke="#F7F8F8" stroke-width="6" stroke-miterlimit="10" x1="765.353" y1="0" x2="765.353" y2="396.85"/>
	
		<line opacity="0.1" fill="none" stroke="#F7F8F8" stroke-width="6" stroke-miterlimit="10" x1="782.36" y1="0" x2="782.36" y2="396.85"/>
	
		<line opacity="0.1" fill="none" stroke="#F7F8F8" stroke-width="6" stroke-miterlimit="10" x1="799.368" y1="0" x2="799.368" y2="396.85"/>
	
		<line opacity="0.1" fill="none" stroke="#F7F8F8" stroke-width="6" stroke-miterlimit="10" x1="816.376" y1="0" x2="816.376" y2="396.85"/>
	
		<line opacity="0.1" fill="none" stroke="#F7F8F8" stroke-width="6" stroke-miterlimit="10" x1="833.384" y1="0" x2="833.384" y2="396.85"/>
	
		<line opacity="0.1" fill="none" stroke="#F7F8F8" stroke-width="6" stroke-miterlimit="10" x1="850.392" y1="0" x2="850.392" y2="396.85"/>
	
		<line opacity="0.1" fill="none" stroke="#F7F8F8" stroke-width="6" stroke-miterlimit="10" x1="867.399" y1="0" x2="867.399" y2="396.85"/>
	
		<line opacity="0.1" fill="none" stroke="#F7F8F8" stroke-width="6" stroke-miterlimit="10" x1="884.407" y1="0" x2="884.407" y2="396.85"/>
	
		<line opacity="0.1" fill="none" stroke="#F7F8F8" stroke-width="6" stroke-miterlimit="10" x1="901.415" y1="0" x2="901.415" y2="396.85"/>
	
		<line opacity="0.1" fill="none" stroke="#F7F8F8" stroke-width="6" stroke-miterlimit="10" x1="918.423" y1="0" x2="918.423" y2="396.85"/>
	
		<line opacity="0.1" fill="none" stroke="#F7F8F8" stroke-width="6" stroke-miterlimit="10" x1="935.431" y1="0" x2="935.431" y2="396.85"/>
	
		<line opacity="0.1" fill="none" stroke="#F7F8F8" stroke-width="6" stroke-miterlimit="10" x1="952.438" y1="0" x2="952.438" y2="396.85"/>
	
		<line opacity="0.1" fill="none" stroke="#F7F8F8" stroke-width="6" stroke-miterlimit="10" x1="969.446" y1="0" x2="969.446" y2="396.85"/>
	
		<line opacity="0.1" fill="none" stroke="#F7F8F8" stroke-width="6" stroke-miterlimit="10" x1="986.454" y1="0" x2="986.454" y2="396.85"/>
	
		<line opacity="0.1" fill="none" stroke="#F7F8F8" stroke-width="6" stroke-miterlimit="10" x1="1003.462" y1="0" x2="1003.462" y2="396.85"/>
	
		<line opacity="0.1" fill="none" stroke="#F7F8F8" stroke-width="6" stroke-miterlimit="10" x1="1020.47" y1="0" x2="1020.47" y2="396.85"/>
	
		<line opacity="0.1" fill="none" stroke="#F7F8F8" stroke-width="6" stroke-miterlimit="10" x1="1037.478" y1="0" x2="1037.478" y2="396.85"/>
	
		<line opacity="0.1" fill="none" stroke="#F7F8F8" stroke-width="6" stroke-miterlimit="10" x1="1054.485" y1="0" x2="1054.485" y2="396.85"/>
	
		<line opacity="0.1" fill="none" stroke="#F7F8F8" stroke-width="6" stroke-miterlimit="10" x1="1071.493" y1="0" x2="1071.493" y2="396.85"/>
	
		<line opacity="0.1" fill="none" stroke="#F7F8F8" stroke-width="6" stroke-miterlimit="10" x1="1088.501" y1="0" x2="1088.501" y2="396.85"/>
	
		<line opacity="0.1" fill="none" stroke="#F7F8F8" stroke-width="6" stroke-miterlimit="10" x1="1105.509" y1="0" x2="1105.509" y2="396.85"/>
	
		<line opacity="0.1" fill="none" stroke="#F7F8F8" stroke-width="6" stroke-miterlimit="10" x1="1122.517" y1="0" x2="1122.517" y2="396.85"/>
	
		<line opacity="0.1" fill="none" stroke="#F7F8F8" stroke-width="6" stroke-miterlimit="10" x1="1139.524" y1="0" x2="1139.524" y2="396.85"/>
	
		<line opacity="0.1" fill="none" stroke="#F7F8F8" stroke-width="6" stroke-miterlimit="10" x1="1156.532" y1="0" x2="1156.532" y2="396.85"/>
	
		<line opacity="0.1" fill="none" stroke="#F7F8F8" stroke-width="6" stroke-miterlimit="10" x1="1173.54" y1="0" x2="1173.54" y2="396.85"/>
	
		<line opacity="0.1" fill="none" stroke="#F7F8F8" stroke-width="6" stroke-miterlimit="10" x1="1190.548" y1="0" x2="1190.548" y2="396.85"/>
	
		<line opacity="0.1" fill="none" stroke="#F7F8F8" stroke-width="6" stroke-miterlimit="10" x1="1207.556" y1="0" x2="1207.556" y2="396.85"/>
	
		<line opacity="0.1" fill="none" stroke="#F7F8F8" stroke-width="6" stroke-miterlimit="10" x1="1224.563" y1="0" x2="1224.563" y2="396.85"/>
	
		<line opacity="0.1" fill="none" stroke="#F7F8F8" stroke-width="6" stroke-miterlimit="10" x1="1241.571" y1="0" x2="1241.571" y2="396.85"/>
	
		<line opacity="0.1" fill="none" stroke="#F7F8F8" stroke-width="6" stroke-miterlimit="10" x1="1258.579" y1="0" x2="1258.579" y2="396.85"/>
	
		<line opacity="0.1" fill="none" stroke="#F7F8F8" stroke-width="6" stroke-miterlimit="10" x1="1275.587" y1="0" x2="1275.587" y2="396.85"/>
	
		<line opacity="0.1" fill="none" stroke="#F7F8F8" stroke-width="6" stroke-miterlimit="10" x1="1292.595" y1="0" x2="1292.595" y2="396.85"/>
	
		<line opacity="0.1" fill="none" stroke="#F7F8F8" stroke-width="6" stroke-miterlimit="10" x1="1309.603" y1="0" x2="1309.603" y2="396.85"/>
	
		<line opacity="0.1" fill="none" stroke="#F7F8F8" stroke-width="6" stroke-miterlimit="10" x1="1326.61" y1="0" x2="1326.61" y2="396.85"/>
	
		<line opacity="0.1" fill="none" stroke="#F7F8F8" stroke-width="6" stroke-miterlimit="10" x1="1343.618" y1="0" x2="1343.618" y2="396.85"/>
	
		<line opacity="0.1" fill="none" stroke="#F7F8F8" stroke-width="6" stroke-miterlimit="10" x1="1360.626" y1="0" x2="1360.626" y2="396.85"/>
	
		<line opacity="0.1" fill="none" stroke="#F7F8F8" stroke-width="6" stroke-miterlimit="10" x1="1377.634" y1="0" x2="1377.634" y2="396.85"/>
	
		<line opacity="0.1" fill="none" stroke="#F7F8F8" stroke-width="6" stroke-miterlimit="10" x1="1394.642" y1="0" x2="1394.642" y2="396.85"/>
	
		<line opacity="0.1" fill="none" stroke="#F7F8F8" stroke-width="6" stroke-miterlimit="10" x1="1411.649" y1="0" x2="1411.649" y2="396.85"/>
	
		<line opacity="0.1" fill="none" stroke="#F7F8F8" stroke-width="6" stroke-miterlimit="10" x1="1428.657" y1="0" x2="1428.657" y2="396.85"/>
	
		<line opacity="0.1" fill="none" stroke="#F7F8F8" stroke-width="6" stroke-miterlimit="10" x1="1445.665" y1="0" x2="1445.665" y2="396.85"/>
	
		<line opacity="0.1" fill="none" stroke="#F7F8F8" stroke-width="6" stroke-miterlimit="10" x1="1462.673" y1="0" x2="1462.673" y2="396.85"/>
	
		<line opacity="0.1" fill="none" stroke="#F7F8F8" stroke-width="6" stroke-miterlimit="10" x1="1479.681" y1="0" x2="1479.681" y2="396.85"/>
	
		<line opacity="0.1" fill="none" stroke="#F7F8F8" stroke-width="6" stroke-miterlimit="10" x1="1496.688" y1="0" x2="1496.688" y2="396.85"/>
	
		<line opacity="0.1" fill="none" stroke="#F7F8F8" stroke-width="6" stroke-miterlimit="10" x1="1513.696" y1="0" x2="1513.696" y2="396.85"/>
	
		<line opacity="0.1" fill="none" stroke="#F7F8F8" stroke-width="6" stroke-miterlimit="10" x1="1530.704" y1="0" x2="1530.704" y2="396.85"/>
	
		<line opacity="0.1" fill="none" stroke="#F7F8F8" stroke-width="6" stroke-miterlimit="10" x1="1547.712" y1="0" x2="1547.712" y2="396.85"/>
	
		<line opacity="0.1" fill="none" stroke="#F7F8F8" stroke-width="6" stroke-miterlimit="10" x1="1564.72" y1="0" x2="1564.72" y2="396.85"/>
	
		<line opacity="0.1" fill="none" stroke="#F7F8F8" stroke-width="6" stroke-miterlimit="10" x1="1581.728" y1="0" x2="1581.728" y2="396.85"/>
	
		<line opacity="0.1" fill="none" stroke="#F7F8F8" stroke-width="6" stroke-miterlimit="10" x1="1598.735" y1="0" x2="1598.735" y2="396.85"/>
	
		<line opacity="0.1" fill="none" stroke="#F7F8F8" stroke-width="6" stroke-miterlimit="10" x1="1615.743" y1="0" x2="1615.743" y2="396.85"/>
	
		<line opacity="0.1" fill="none" stroke="#F7F8F8" stroke-width="6" stroke-miterlimit="10" x1="1632.751" y1="0" x2="1632.751" y2="396.85"/>
	
		<line opacity="0.1" fill="none" stroke="#F7F8F8" stroke-width="6" stroke-miterlimit="10" x1="1649.759" y1="0" x2="1649.759" y2="396.85"/>
	
		<line opacity="0.1" fill="none" stroke="#F7F8F8" stroke-width="6" stroke-miterlimit="10" x1="1666.767" y1="0" x2="1666.767" y2="396.85"/>
	
		<line opacity="0.1" fill="none" stroke="#F7F8F8" stroke-width="6" stroke-miterlimit="10" x1="1683.774" y1="0" x2="1683.774" y2="396.85"/>
	
		<line opacity="0.1" fill="none" stroke="#F7F8F8" stroke-width="6" stroke-miterlimit="10" x1="1700.782" y1="0" x2="1700.782" y2="396.85"/>
	
		<line opacity="0.1" fill="none" stroke="#F7F8F8" stroke-width="6" stroke-miterlimit="10" x1="1717.79" y1="0" x2="1717.79" y2="396.85"/>
	
		<line opacity="0.1" fill="none" stroke="#F7F8F8" stroke-width="6" stroke-miterlimit="10" x1="1734.798" y1="0" x2="1734.798" y2="396.85"/>
	
		<line opacity="0.1" fill="none" stroke="#F7F8F8" stroke-width="6" stroke-miterlimit="10" x1="1751.806" y1="0" x2="1751.806" y2="396.85"/>
	
		<line opacity="0.1" fill="none" stroke="#F7F8F8" stroke-width="6" stroke-miterlimit="10" x1="1768.813" y1="0" x2="1768.813" y2="396.85"/>
	
		<line opacity="0.1" fill="none" stroke="#F7F8F8" stroke-width="6" stroke-miterlimit="10" x1="1785.821" y1="0" x2="1785.821" y2="396.85"/>
	
		<line opacity="0.1" fill="none" stroke="#F7F8F8" stroke-width="6" stroke-miterlimit="10" x1="1802.829" y1="0" x2="1802.829" y2="396.85"/>
	
		<line opacity="0.1" fill="none" stroke="#F7F8F8" stroke-width="6" stroke-miterlimit="10" x1="1819.837" y1="0" x2="1819.837" y2="396.85"/>
	
		<line opacity="0.1" fill="none" stroke="#F7F8F8" stroke-width="6" stroke-miterlimit="10" x1="1836.845" y1="0" x2="1836.845" y2="396.85"/>
	
		<line opacity="0.1" fill="none" stroke="#F7F8F8" stroke-width="6" stroke-miterlimit="10" x1="1853.853" y1="0" x2="1853.853" y2="396.85"/>
	
		<line opacity="0.1" fill="none" stroke="#F7F8F8" stroke-width="6" stroke-miterlimit="10" x1="1870.86" y1="0" x2="1870.86" y2="396.85"/>
	
		<line opacity="0.1" fill="none" stroke="#F7F8F8" stroke-width="6" stroke-miterlimit="10" x1="1887.868" y1="0" x2="1887.868" y2="396.85"/>
	
		<line opacity="0.1" fill="none" stroke="#F7F8F8" stroke-width="6" stroke-miterlimit="10" x1="1904.876" y1="0" x2="1904.876" y2="396.85"/>
	
		<line opacity="0.1" fill="none" stroke="#F7F8F8" stroke-width="6" stroke-miterlimit="10" x1="1921.884" y1="0" x2="1921.884" y2="396.85"/>
	
		<line opacity="0.1" fill="none" stroke="#F7F8F8" stroke-width="6" stroke-miterlimit="10" x1="1938.892" y1="0" x2="1938.892" y2="396.85"/>
	
		<line opacity="0.1" fill="none" stroke="#F7F8F8" stroke-width="6" stroke-miterlimit="10" x1="1955.899" y1="0" x2="1955.899" y2="396.85"/>
	
		<line opacity="0.1" fill="none" stroke="#F7F8F8" stroke-width="6" stroke-miterlimit="10" x1="1972.907" y1="0" x2="1972.907" y2="396.85"/>
	
		<line opacity="0.1" fill="none" stroke="#F7F8F8" stroke-width="6" stroke-miterlimit="10" x1="1989.915" y1="0" x2="1989.915" y2="396.85"/>
	
		<line opacity="0.1" fill="none" stroke="#F7F8F8" stroke-width="6" stroke-miterlimit="10" x1="2006.923" y1="0" x2="2006.923" y2="396.85"/>
	
		<line opacity="0.1" fill="none" stroke="#F7F8F8" stroke-width="6" stroke-miterlimit="10" x1="2023.931" y1="0" x2="2023.931" y2="396.85"/>
	
		<line opacity="0.1" fill="none" stroke="#F7F8F8" stroke-width="6" stroke-miterlimit="10" x1="2040.938" y1="0" x2="2040.938" y2="396.85"/>
	
		<line opacity="0.1" fill="none" stroke="#F7F8F8" stroke-width="6" stroke-miterlimit="10" x1="2057.946" y1="0" x2="2057.946" y2="396.85"/>
	
		<line opacity="0.1" fill="none" stroke="#F7F8F8" stroke-width="6" stroke-miterlimit="10" x1="2074.954" y1="0" x2="2074.954" y2="396.85"/>
	
		<line opacity="0.1" fill="none" stroke="#F7F8F8" stroke-width="6" stroke-miterlimit="10" x1="2091.962" y1="0" x2="2091.962" y2="396.85"/>
	
		<line opacity="0.1" fill="none" stroke="#F7F8F8" stroke-width="6" stroke-miterlimit="10" x1="2108.97" y1="0" x2="2108.97" y2="396.85"/>
	
		<line opacity="0.1" fill="none" stroke="#F7F8F8" stroke-width="6" stroke-miterlimit="10" x1="2125.978" y1="0" x2="2125.978" y2="396.85"/>
	
		<line opacity="0.1" fill="none" stroke="#F7F8F8" stroke-width="6" stroke-miterlimit="10" x1="2142.985" y1="0" x2="2142.985" y2="396.85"/>
	
		<line opacity="0.1" fill="none" stroke="#F7F8F8" stroke-width="6" stroke-miterlimit="10" x1="2159.993" y1="0" x2="2159.993" y2="396.85"/>
	
		<line opacity="0.1" fill="none" stroke="#F7F8F8" stroke-width="6" stroke-miterlimit="10" x1="2177.001" y1="0" x2="2177.001" y2="396.85"/>
	
		<line opacity="0.1" fill="none" stroke="#F7F8F8" stroke-width="6" stroke-miterlimit="10" x1="2194.009" y1="0" x2="2194.009" y2="396.85"/>
	
		<line opacity="0.1" fill="none" stroke="#F7F8F8" stroke-width="6" stroke-miterlimit="10" x1="2211.017" y1="0" x2="2211.017" y2="396.85"/>
	
		<line opacity="0.1" fill="none" stroke="#F7F8F8" stroke-width="6" stroke-miterlimit="10" x1="2228.024" y1="0" x2="2228.024" y2="396.85"/>
	
		<line opacity="0.1" fill="none" stroke="#F7F8F8" stroke-width="6" stroke-miterlimit="10" x1="2245.032" y1="0" x2="2245.032" y2="396.85"/>
	
		<line opacity="0.1" fill="none" stroke="#F7F8F8" stroke-width="6" stroke-miterlimit="10" x1="2262.04" y1="0" x2="2262.04" y2="396.85"/>
	
		<line opacity="0.1" fill="none" stroke="#F7F8F8" stroke-width="6" stroke-miterlimit="10" x1="2279.048" y1="0" x2="2279.048" y2="396.85"/>
	
		<line opacity="0.1" fill="none" stroke="#F7F8F8" stroke-width="6" stroke-miterlimit="10" x1="2296.056" y1="0" x2="2296.056" y2="396.85"/>
	
		<line opacity="0.1" fill="none" stroke="#F7F8F8" stroke-width="6" stroke-miterlimit="10" x1="2313.063" y1="0" x2="2313.063" y2="396.85"/>
	
		<line opacity="0.1" fill="none" stroke="#F7F8F8" stroke-width="6" stroke-miterlimit="10" x1="2330.071" y1="0" x2="2330.071" y2="396.85"/>
	
		<line opacity="0.1" fill="none" stroke="#F7F8F8" stroke-width="6" stroke-miterlimit="10" x1="2347.079" y1="0" x2="2347.079" y2="396.85"/>
	
		<line opacity="0.1" fill="none" stroke="#F7F8F8" stroke-width="6" stroke-miterlimit="10" x1="2364.087" y1="0" x2="2364.087" y2="396.85"/>
	
		<line opacity="0.1" fill="none" stroke="#F7F8F8" stroke-width="6" stroke-miterlimit="10" x1="2381.095" y1="0" x2="2381.095" y2="396.85"/>
	
		<line opacity="0.1" fill="none" stroke="#F7F8F8" stroke-width="6" stroke-miterlimit="10" x1="2398.103" y1="0" x2="2398.103" y2="396.85"/>
	
		<line opacity="0.1" fill="none" stroke="#F7F8F8" stroke-width="6" stroke-miterlimit="10" x1="2415.11" y1="0" x2="2415.11" y2="396.85"/>
	
		<line opacity="0.1" fill="none" stroke="#F7F8F8" stroke-width="6" stroke-miterlimit="10" x1="2432.118" y1="0" x2="2432.118" y2="396.85"/>
	
		<line opacity="0.1" fill="none" stroke="#F7F8F8" stroke-width="6" stroke-miterlimit="10" x1="2449.126" y1="0" x2="2449.126" y2="396.85"/>
	
		<line opacity="0.1" fill="none" stroke="#F7F8F8" stroke-width="6" stroke-miterlimit="10" x1="2466.134" y1="0" x2="2466.134" y2="396.85"/>
	
		<line opacity="0.1" fill="none" stroke="#F7F8F8" stroke-width="6" stroke-miterlimit="10" x1="2483.142" y1="0" x2="2483.142" y2="396.85"/>
	
		<line opacity="0.1" fill="none" stroke="#F7F8F8" stroke-width="6" stroke-miterlimit="10" x1="2500.149" y1="0" x2="2500.149" y2="396.85"/>
	
		<line opacity="0.1" fill="none" stroke="#F7F8F8" stroke-width="6" stroke-miterlimit="10" x1="2517.157" y1="0" x2="2517.157" y2="396.85"/>
	
		<line opacity="0.1" fill="none" stroke="#F7F8F8" stroke-width="6" stroke-miterlimit="10" x1="2534.165" y1="0" x2="2534.165" y2="396.85"/>
	
		<line opacity="0.1" fill="none" stroke="#F7F8F8" stroke-width="6" stroke-miterlimit="10" x1="2551.173" y1="0" x2="2551.173" y2="396.85"/>
	
		<line opacity="0.1" fill="none" stroke="#F7F8F8" stroke-width="6" stroke-miterlimit="10" x1="2568.181" y1="0" x2="2568.181" y2="396.85"/>
	
		<line opacity="0.1" fill="none" stroke="#F7F8F8" stroke-width="6" stroke-miterlimit="10" x1="2585.188" y1="0" x2="2585.188" y2="396.85"/>
	
		<line opacity="0.1" fill="none" stroke="#F7F8F8" stroke-width="6" stroke-miterlimit="10" x1="2602.196" y1="0" x2="2602.196" y2="396.85"/>
	
		<line opacity="0.1" fill="none" stroke="#F7F8F8" stroke-width="6" stroke-miterlimit="10" x1="2619.204" y1="0" x2="2619.204" y2="396.85"/>
	
		<line opacity="0.1" fill="none" stroke="#F7F8F8" stroke-width="6" stroke-miterlimit="10" x1="2636.212" y1="0" x2="2636.212" y2="396.85"/>
	
		<line opacity="0.1" fill="none" stroke="#F7F8F8" stroke-width="6" stroke-miterlimit="10" x1="2653.22" y1="0" x2="2653.22" y2="396.85"/>
	
		<line opacity="0.1" fill="none" stroke="#F7F8F8" stroke-width="6" stroke-miterlimit="10" x1="2670.228" y1="0" x2="2670.228" y2="396.85"/>
	
		<line opacity="0.1" fill="none" stroke="#F7F8F8" stroke-width="6" stroke-miterlimit="10" x1="2687.235" y1="0" x2="2687.235" y2="396.85"/>
	
		<line opacity="0.1" fill="none" stroke="#F7F8F8" stroke-width="6" stroke-miterlimit="10" x1="2704.243" y1="0" x2="2704.243" y2="396.85"/>
	
		<line opacity="0.1" fill="none" stroke="#F7F8F8" stroke-width="6" stroke-miterlimit="10" x1="2721.251" y1="0" x2="2721.251" y2="396.85"/>
	
		<line opacity="0.1" fill="none" stroke="#F7F8F8" stroke-width="6" stroke-miterlimit="10" x1="2738.259" y1="0" x2="2738.259" y2="396.85"/>
	
		<line opacity="0.1" fill="none" stroke="#F7F8F8" stroke-width="6" stroke-miterlimit="10" x1="2755.267" y1="0" x2="2755.267" y2="396.85"/>
	
		<line opacity="0.1" fill="none" stroke="#F7F8F8" stroke-width="6" stroke-miterlimit="10" x1="2772.274" y1="0" x2="2772.274" y2="396.85"/>
	
		<line opacity="0.1" fill="none" stroke="#F7F8F8" stroke-width="6" stroke-miterlimit="10" x1="2789.282" y1="0" x2="2789.282" y2="396.85"/>
	
		<line opacity="0.1" fill="none" stroke="#F7F8F8" stroke-width="6" stroke-miterlimit="10" x1="2806.29" y1="0" x2="2806.29" y2="396.85"/>
	
		<line opacity="0.1" fill="none" stroke="#F7F8F8" stroke-width="6" stroke-miterlimit="10" x1="2823.298" y1="0" x2="2823.298" y2="396.85"/>
	
		<line opacity="0.1" fill="none" stroke="#F7F8F8" stroke-width="6" stroke-miterlimit="10" x1="2840.306" y1="0" x2="2840.306" y2="396.85"/>
	
		<line opacity="0.1" fill="none" stroke="#F7F8F8" stroke-width="6" stroke-miterlimit="10" x1="2857.313" y1="0" x2="2857.313" y2="396.85"/>
	
		<line opacity="0.1" fill="none" stroke="#F7F8F8" stroke-width="6" stroke-miterlimit="10" x1="2874.321" y1="0" x2="2874.321" y2="396.85"/>
	
		<line opacity="0.1" fill="none" stroke="#F7F8F8" stroke-width="6" stroke-miterlimit="10" x1="2891.329" y1="0" x2="2891.329" y2="396.85"/>
	
		<line opacity="0.1" fill="none" stroke="#F7F8F8" stroke-width="6" stroke-miterlimit="10" x1="2908.337" y1="0" x2="2908.337" y2="396.85"/>
	
		<line opacity="0.1" fill="none" stroke="#F7F8F8" stroke-width="6" stroke-miterlimit="10" x1="2925.345" y1="0" x2="2925.345" y2="396.85"/>
	
		<line opacity="0.1" fill="none" stroke="#F7F8F8" stroke-width="6" stroke-miterlimit="10" x1="2942.353" y1="0" x2="2942.353" y2="396.85"/>
	
		<line opacity="0.1" fill="none" stroke="#F7F8F8" stroke-width="6" stroke-miterlimit="10" x1="2959.36" y1="0" x2="2959.36" y2="396.85"/>
	
		<line opacity="0.1" fill="none" stroke="#F7F8F8" stroke-width="6" stroke-miterlimit="10" x1="2976.368" y1="0" x2="2976.368" y2="396.85"/>
	
		<line opacity="0.1" fill="none" stroke="#F7F8F8" stroke-width="6" stroke-miterlimit="10" x1="2993.376" y1="0" x2="2993.376" y2="396.85"/>
	
		<line opacity="0.1" fill="none" stroke="#F7F8F8" stroke-width="6" stroke-miterlimit="10" x1="3010.384" y1="0" x2="3010.384" y2="396.85"/>
	
		<line opacity="0.1" fill="none" stroke="#F7F8F8" stroke-width="6" stroke-miterlimit="10" x1="3027.392" y1="0" x2="3027.392" y2="396.85"/>
	
		<line opacity="0.1" fill="none" stroke="#F7F8F8" stroke-width="6" stroke-miterlimit="10" x1="3044.399" y1="0" x2="3044.399" y2="396.85"/>
	
		<line opacity="0.1" fill="none" stroke="#F7F8F8" stroke-width="6" stroke-miterlimit="10" x1="3061.407" y1="0" x2="3061.407" y2="396.85"/>
	
		<line opacity="0.1" fill="none" stroke="#F7F8F8" stroke-width="6" stroke-miterlimit="10" x1="3078.415" y1="0" x2="3078.415" y2="396.85"/>
	
		<line opacity="0.1" fill="none" stroke="#F7F8F8" stroke-width="6" stroke-miterlimit="10" x1="3095.423" y1="0" x2="3095.423" y2="396.85"/>
	
		<line opacity="0.1" fill="none" stroke="#F7F8F8" stroke-width="6" stroke-miterlimit="10" x1="3112.431" y1="0" x2="3112.431" y2="396.85"/>
	
		<line opacity="0.1" fill="none" stroke="#F7F8F8" stroke-width="6" stroke-miterlimit="10" x1="3129.438" y1="0" x2="3129.438" y2="396.85"/>
	
		<line opacity="0.1" fill="none" stroke="#F7F8F8" stroke-width="6" stroke-miterlimit="10" x1="3146.446" y1="0" x2="3146.446" y2="396.85"/>
	
		<line opacity="0.1" fill="none" stroke="#F7F8F8" stroke-width="6" stroke-miterlimit="10" x1="3163.454" y1="0" x2="3163.454" y2="396.85"/>
	
		<line opacity="0.1" fill="none" stroke="#F7F8F8" stroke-width="6" stroke-miterlimit="10" x1="3180.462" y1="0" x2="3180.462" y2="396.85"/>
	
		<line opacity="0.1" fill="none" stroke="#F7F8F8" stroke-width="6" stroke-miterlimit="10" x1="3197.47" y1="0" x2="3197.47" y2="396.85"/>
	
		<line opacity="0.1" fill="none" stroke="#F7F8F8" stroke-width="6" stroke-miterlimit="10" x1="3214.478" y1="0" x2="3214.478" y2="396.85"/>
	
		<line opacity="0.1" fill="none" stroke="#F7F8F8" stroke-width="6" stroke-miterlimit="10" x1="3231.485" y1="0" x2="3231.485" y2="396.85"/>
	
		<line opacity="0.1" fill="none" stroke="#F7F8F8" stroke-width="6" stroke-miterlimit="10" x1="3248.493" y1="0" x2="3248.493" y2="396.85"/>
	
		<line opacity="0.1" fill="none" stroke="#F7F8F8" stroke-width="6" stroke-miterlimit="10" x1="3265.501" y1="0" x2="3265.501" y2="396.85"/>
	
		<line opacity="0.1" fill="none" stroke="#F7F8F8" stroke-width="6" stroke-miterlimit="10" x1="3282.509" y1="0" x2="3282.509" y2="396.85"/>
	
		<line opacity="0.1" fill="none" stroke="#F7F8F8" stroke-width="6" stroke-miterlimit="10" x1="3299.517" y1="0" x2="3299.517" y2="396.85"/>
	
		<line opacity="0.1" fill="none" stroke="#F7F8F8" stroke-width="6" stroke-miterlimit="10" x1="3316.524" y1="0" x2="3316.524" y2="396.85"/>
	
		<line opacity="0.1" fill="none" stroke="#F7F8F8" stroke-width="6" stroke-miterlimit="10" x1="3333.532" y1="0" x2="3333.532" y2="396.85"/>
	
		<line opacity="0.1" fill="none" stroke="#F7F8F8" stroke-width="6" stroke-miterlimit="10" x1="3350.54" y1="0" x2="3350.54" y2="396.85"/>
	
		<line opacity="0.1" fill="none" stroke="#F7F8F8" stroke-width="6" stroke-miterlimit="10" x1="3367.548" y1="0" x2="3367.548" y2="396.85"/>
	
		<line opacity="0.1" fill="none" stroke="#F7F8F8" stroke-width="6" stroke-miterlimit="10" x1="3384.556" y1="0" x2="3384.556" y2="396.85"/>
	
		<line opacity="0.1" fill="none" stroke="#F7F8F8" stroke-width="6" stroke-miterlimit="10" x1="3401.563" y1="0" x2="3401.563" y2="396.85"/>
	
		<line opacity="0.1" fill="none" stroke="#F7F8F8" stroke-width="6" stroke-miterlimit="10" x1="3418.571" y1="0" x2="3418.571" y2="396.85"/>
	
		<line opacity="0.1" fill="none" stroke="#F7F8F8" stroke-width="6" stroke-miterlimit="10" x1="3435.579" y1="0" x2="3435.579" y2="396.85"/>
	
		<line opacity="0.1" fill="none" stroke="#F7F8F8" stroke-width="6" stroke-miterlimit="10" x1="3452.587" y1="0" x2="3452.587" y2="396.85"/>
	
		<line opacity="0.1" fill="none" stroke="#F7F8F8" stroke-width="6" stroke-miterlimit="10" x1="3469.595" y1="0" x2="3469.595" y2="396.85"/>
	
		<line opacity="0.1" fill="none" stroke="#F7F8F8" stroke-width="6" stroke-miterlimit="10" x1="3486.603" y1="0" x2="3486.603" y2="396.85"/>
	
		<line opacity="0.1" fill="none" stroke="#F7F8F8" stroke-width="6" stroke-miterlimit="10" x1="3503.61" y1="0" x2="3503.61" y2="396.85"/>
	
		<line opacity="0.1" fill="none" stroke="#F7F8F8" stroke-width="6" stroke-miterlimit="10" x1="3520.618" y1="0" x2="3520.618" y2="396.85"/>
	
		<line opacity="0.1" fill="none" stroke="#F7F8F8" stroke-width="6" stroke-miterlimit="10" x1="3537.626" y1="0" x2="3537.626" y2="396.85"/>
	
		<line opacity="0.1" fill="none" stroke="#F7F8F8" stroke-width="6" stroke-miterlimit="10" x1="3554.634" y1="0" x2="3554.634" y2="396.85"/>
	
		<line opacity="0.1" fill="none" stroke="#F7F8F8" stroke-width="6" stroke-miterlimit="10" x1="3571.642" y1="0" x2="3571.642" y2="396.85"/>
	
		<line opacity="0.1" fill="none" stroke="#F7F8F8" stroke-width="6" stroke-miterlimit="10" x1="3588.649" y1="0" x2="3588.649" y2="396.85"/>
	
		<line opacity="0.1" fill="none" stroke="#F7F8F8" stroke-width="6" stroke-miterlimit="10" x1="3605.657" y1="0" x2="3605.657" y2="396.85"/>
	
		<line opacity="0.1" fill="none" stroke="#F7F8F8" stroke-width="6" stroke-miterlimit="10" x1="3622.665" y1="0" x2="3622.665" y2="396.85"/>
	
		<line opacity="0.1" fill="none" stroke="#F7F8F8" stroke-width="6" stroke-miterlimit="10" x1="3639.673" y1="0" x2="3639.673" y2="396.85"/>
	
		<line opacity="0.1" fill="none" stroke="#F7F8F8" stroke-width="6" stroke-miterlimit="10" x1="3656.681" y1="0" x2="3656.681" y2="396.85"/>
	
		<line opacity="0.1" fill="none" stroke="#F7F8F8" stroke-width="6" stroke-miterlimit="10" x1="3673.688" y1="0" x2="3673.688" y2="396.85"/>
	
		<line opacity="0.1" fill="none" stroke="#F7F8F8" stroke-width="6" stroke-miterlimit="10" x1="3690.696" y1="0" x2="3690.696" y2="396.85"/>
	
		<line opacity="0.1" fill="none" stroke="#F7F8F8" stroke-width="6" stroke-miterlimit="10" x1="3707.704" y1="0" x2="3707.704" y2="396.85"/>
	
		<line opacity="0.1" fill="none" stroke="#F7F8F8" stroke-width="6" stroke-miterlimit="10" x1="3724.712" y1="0" x2="3724.712" y2="396.85"/>
	
		<line opacity="0.1" fill="none" stroke="#F7F8F8" stroke-width="6" stroke-miterlimit="10" x1="3741.72" y1="0" x2="3741.72" y2="396.85"/>
	
		<line opacity="0.1" fill="none" stroke="#F7F8F8" stroke-width="6" stroke-miterlimit="10" x1="3758.728" y1="0" x2="3758.728" y2="396.85"/>
	
		<line opacity="0.1" fill="none" stroke="#F7F8F8" stroke-width="6" stroke-miterlimit="10" x1="3775.735" y1="0" x2="3775.735" y2="396.85"/>
	
		<line opacity="0.1" fill="none" stroke="#F7F8F8" stroke-width="6" stroke-miterlimit="10" x1="3792.743" y1="0" x2="3792.743" y2="396.85"/>
	
		<line opacity="0.1" fill="none" stroke="#F7F8F8" stroke-width="6" stroke-miterlimit="10" x1="3809.751" y1="0" x2="3809.751" y2="396.85"/>
	
		<line opacity="0.1" fill="none" stroke="#F7F8F8" stroke-width="6" stroke-miterlimit="10" x1="3826.759" y1="0" x2="3826.759" y2="396.85"/>
</g>
<g id="蘑菇">
	<path fill="none" stroke="#E4007F" stroke-width="3" stroke-miterlimit="10" d="M721.152,123.094"/>
	<path fill="none" stroke="#F39800" stroke-width="3" stroke-miterlimit="10" d="M368.41,201.553"/>
</g>
</svg>
